<svg xmlns="http://www.w3.org/2000/svg" width="135" height="80" viewBox="0 0 135 80" fill="none"><g clip-path="url(#clip0_470_131)"><path fill-rule="evenodd" clip-rule="evenodd" d="M8.31734 72.2057V78.9486H9.95335V69.5429H8.19149L5.31988 73.9886L2.44827 69.5429H0.686401V78.9486H2.33386V72.2286L5.28555 76.64H5.34276L8.31734 72.2057ZM19.4834 69.4857H17.9504L13.8089 78.96H15.5021L16.4745 76.6857H20.925L21.886 78.96H23.6364L19.4834 69.4857ZM20.3186 75.2229H17.0809L18.694 71.4629L20.3186 75.2229ZM35.4775 78.96L32.9377 75.3943C33.2695 75.3029 33.5784 75.1772 33.8415 75.0057C34.1161 74.8457 34.3563 74.64 34.5508 74.4C34.7453 74.16 34.9055 73.8857 35.0199 73.5772C35.1343 73.2686 35.1915 72.9143 35.1915 72.5257C35.1915 72.0686 35.1114 71.6572 34.9512 71.28C34.7911 70.9143 34.5623 70.5943 34.2534 70.3429C33.9559 70.0914 33.5898 69.8857 33.155 69.7486C32.7203 69.6114 32.2283 69.5429 31.6906 69.5429H27.4919V78.9486H29.1394V75.6686H31.2216L33.544 78.9486H35.4775V78.96ZM33.4983 72.6172C33.4983 73.1086 33.3267 73.4857 32.972 73.7829C32.6173 74.0686 32.1483 74.2172 31.5534 74.2172H29.1279V71.04H31.5419C32.1597 71.04 32.6402 71.1772 32.9834 71.44C33.3267 71.7029 33.4983 72.1029 33.4983 72.6172ZM43.6919 73.6L47.6046 69.5543H45.5682L41.0949 74.2857V69.5543H39.4474V78.96H41.0949V76.2286L42.5593 74.72L45.7741 78.9486H47.7762L43.6919 73.6ZM58.4161 69.5543H51.4487V78.96H58.4847V77.4629H53.0847V74.9486H57.8097V73.4514H53.0847V71.0286H58.4161V69.5543ZM66.6877 71.0857H69.6737V69.5543H62.0313V71.0857H65.0173V78.96H66.6877V71.0857ZM73.758 69.5543V78.96H75.394V69.5543H73.758ZM86.7317 76.0572L81.6978 69.5543H80.1648V78.96H81.8122V72.2629L86.9949 78.96H88.3792V69.5543H86.7432V76.0572H86.7317ZM101.433 77.6572V73.7029H97.4173V75.1429H99.8313V76.9143C99.5453 77.1314 99.2021 77.3029 98.8131 77.44C98.4241 77.5657 98.0008 77.6343 97.5546 77.6343C97.0741 77.6343 96.6279 77.5543 96.2389 77.3829C95.85 77.2114 95.5067 76.9714 95.2322 76.6743C94.9461 76.3772 94.7288 76.0229 94.58 75.6C94.4313 75.1886 94.3512 74.7429 94.3512 74.2514C94.3512 73.7943 94.4313 73.36 94.5915 72.96C94.7517 72.56 94.969 72.2057 95.2322 71.8972C95.5067 71.5886 95.8271 71.3486 96.2046 71.1772C96.5822 71.0057 96.9826 70.9143 97.4059 70.9143C97.7033 70.9143 97.9779 70.9372 98.2182 70.9829C98.4699 71.0286 98.6872 71.0972 98.8932 71.1886C99.0991 71.2686 99.2936 71.3829 99.4881 71.5086C99.6711 71.6343 99.8656 71.7714 100.037 71.92L101.09 70.6743C100.85 70.4686 100.598 70.2857 100.346 70.1257C100.094 69.9657 99.8199 69.84 99.5339 69.7257C99.2478 69.6229 98.9389 69.5314 98.5957 69.4743C98.2639 69.4172 97.8864 69.3829 97.4745 69.3829C96.7652 69.3829 96.1131 69.5086 95.5182 69.7714C94.9233 70.0343 94.4084 70.3886 93.9737 70.8229C93.5389 71.2686 93.2072 71.7829 92.9669 72.3772C92.7267 72.9714 92.6122 73.6 92.6122 74.2629C92.6122 74.9486 92.7267 75.5886 92.9669 76.1829C93.1957 76.7772 93.5275 77.2914 93.9508 77.7257C94.3741 78.16 94.8889 78.5029 95.4953 78.7429C96.0902 78.9943 96.7652 79.1086 97.4974 79.1086C97.9093 79.1086 98.3097 79.0743 98.6872 78.9943C99.0648 78.9143 99.4194 78.8114 99.7398 78.6743C100.072 78.5372 100.369 78.3772 100.655 78.2057C100.941 78.0457 101.204 77.8514 101.433 77.6572Z" fill="#349AAE"></path><path fill-rule="evenodd" clip-rule="evenodd" d="M29.5055 42.2743V42.1829C29.5055 39.9772 29.1051 37.9429 28.3042 36.0458C27.5034 34.16 26.3593 32.5143 24.8835 31.12C23.4076 29.7258 21.6572 28.6286 19.6093 27.84C17.5729 27.0515 15.3305 26.6629 12.8822 26.6629H0.697876V57.8972H12.8936C15.3305 57.8972 17.5729 57.4972 19.6208 56.6972C21.6572 55.8972 23.4191 54.7886 24.8949 53.3943C26.3708 52 27.5034 50.3429 28.3157 48.4458C29.1051 46.5258 29.5055 44.4686 29.5055 42.2743ZM85.6449 57.8858V33.9772H78.8606V57.8858H85.6449ZM72.4652 52.4915V33.9772H65.6809V37.0972C64.7542 36.0915 63.7017 35.2343 62.5119 34.5486C61.322 33.8629 59.8004 33.52 57.9585 33.52C56.5856 33.52 55.2585 33.76 53.9886 34.2515C52.7072 34.7429 51.5746 35.4629 50.5907 36.4115C49.6068 37.36 48.8174 38.5258 48.2225 39.9086C47.6275 41.2915 47.3301 42.88 47.3301 44.6629V44.7543C47.3301 46.5372 47.6161 48.1258 48.1996 49.5086C48.783 50.8915 49.561 52.0572 50.5449 53.0058C51.5288 53.9543 52.6614 54.6743 53.9428 55.1658C55.2242 55.6572 56.5627 55.8972 57.9585 55.8972C59.7775 55.8972 61.2763 55.5543 62.4661 54.8686C63.6559 54.1829 64.7542 53.2343 65.7725 52.0115V53.1658C65.7725 55.3029 65.2119 56.9258 64.1021 58.0343C62.9809 59.1315 61.2648 59.68 58.9424 59.68C57.3292 59.68 55.8991 59.4858 54.6292 59.0972C53.3593 58.7086 52.1008 58.1715 50.8538 57.4858L48.5314 62.5715C50.053 63.3715 51.7004 63.9886 53.4852 64.4229C55.2699 64.8572 57.1462 65.0743 59.114 65.0743C61.3449 65.0743 63.3013 64.8343 64.9602 64.3658C66.6305 63.8858 68.0148 63.1429 69.136 62.1372C70.2572 61.1315 71.0809 59.8286 71.6415 58.2286C72.1907 56.6743 72.4652 54.7429 72.4652 52.4915ZM65.7725 44.7658C65.7725 45.5658 65.6237 46.3086 65.3263 46.9943C65.0288 47.68 64.6169 48.2629 64.1021 48.7543C63.5758 49.2458 62.9581 49.6229 62.2487 49.8972C61.5394 50.16 60.7614 50.2972 59.9263 50.2972C58.2559 50.2972 56.8716 49.7943 55.7733 48.7772C54.675 47.76 54.1258 46.4229 54.1258 44.7658V44.6858C54.1258 43.8858 54.2746 43.1429 54.572 42.4572C54.8695 41.7715 55.2814 41.1886 55.7962 40.6972C56.3225 40.2058 56.9288 39.8286 57.6267 39.5543C58.3246 39.2915 59.0911 39.1543 59.9263 39.1543C60.7614 39.1543 61.5394 39.2915 62.2487 39.5543C62.9581 39.8172 63.5758 40.2058 64.1021 40.6972C64.6284 41.1886 65.0288 41.7715 65.3263 42.4572C65.6237 43.1429 65.7725 43.8858 65.7725 44.6858V44.7658ZM42.0102 57.8858V33.9772H35.2258V57.8858H42.0102ZM22.3093 42.3658C22.3093 43.76 22.0805 45.0286 21.6229 46.16C21.1653 47.2915 20.5246 48.2743 19.7008 49.1086C18.8771 49.9429 17.8932 50.5829 16.7263 51.0286C15.5708 51.4743 14.2894 51.7029 12.8822 51.7029H7.56228V32.8572H12.8822C14.278 32.8572 15.5593 33.0858 16.7263 33.5429C17.8932 34 18.8771 34.6515 19.7008 35.4858C20.5246 36.32 21.1653 37.3143 21.6229 38.48C22.0805 39.6343 22.3093 40.9029 22.3093 42.2743V42.3658Z" fill="#003157"></path><path fill-rule="evenodd" clip-rule="evenodd" d="M134.302 79.12L112.119 46.7314C114.109 45.9886 115.722 44.8229 116.969 43.2343C118.205 41.6457 118.823 39.5886 118.823 37.0514V36.96C118.823 33.7143 117.793 31.1886 115.722 29.3714C113.652 27.5543 110.757 26.6514 107.039 26.6514H92.7495V57.8857H99.6254V47.8971H105.025L126.305 79.12H134.302ZM111.855 37.4057C111.855 38.7429 111.398 39.8171 110.494 40.6171C109.59 41.4171 108.286 41.8171 106.581 41.8171H99.6139V32.8457H106.444C108.137 32.8457 109.464 33.2229 110.414 33.9657C111.363 34.7086 111.844 35.8286 111.844 37.3143V37.4057H111.855Z" fill="#349AAE"></path><path fill-rule="evenodd" clip-rule="evenodd" d="M105.026 79.12L114.544 65.2L118.526 71.04L113.023 79.1086H105.026V79.12ZM120.802 56.08L126.408 47.8857H134.302L124.772 61.8743L120.802 56.08Z" fill="#003157"></path><path fill-rule="evenodd" clip-rule="evenodd" d="M42.3763 28.0457C62.8894 0.742859 92.1661 -3.01714 124.692 23.8171C99.4538 -3.38286 63.4271 -9.71429 35.5233 23.1543C31.7936 27.1086 37.8915 34 42.3763 28.0457ZM82.247 21.8171C84.5924 21.8171 86.503 23.7143 86.503 26.0686C86.503 28.4114 84.6038 30.32 82.247 30.32C79.9017 30.32 77.9911 28.4229 77.9911 26.0686C77.9911 23.7143 79.9017 21.8171 82.247 21.8171Z" fill="#349AAE"></path></g><defs><clipPath id="clip0_470_131"><rect width="135" height="80" fill="white"></rect></clipPath></defs></svg>